PathFileType	4	(X/Y/Z)	/home/abdul/Desktop/myosuite/custom_workspace/IK/output/01_12_1.trc
DataRate	CameraRate	NumFrames	NumMarkers	Units	OrigDataRate	OrigDataStartFrame	OrigNumFrames
200.0	200.0	56	3	mm	200.0	186	1486
Frame#	Time	V_Shoulder			V_Elbow			V_Wrist		
		X1	Y1	Z1	X2	Y2	Z2	X3	Y3	Z3

186	0.925	21.989254059224777	776.6965909789143	301.71011621448724	-57.4265617514088	585.4437432582886	57.86558543176892	-57.38796479654268	342.00699865940567	56.66194502363535
187	0.93	22.01217294619151	776.0546625762587	301.6537673734893	-57.253137271767756	584.3075677705649	58.171520952265865	-57.25955392106236	340.88173536543854	56.36535862505731
188	0.935	22.03541898841875	775.4150300187566	301.5961153454443	-57.07515477155507	583.1836908214082	58.465205145585536	-57.11975305247331	339.7791770059665	56.072214171337066
189	0.94	22.05900367768247	774.777813931721	301.5372668791888	-56.892744349907105	582.0723720235073	58.746587767098916	-56.96897927868025	338.69895423819673	55.782718384100306
190	0.945	22.08293874317251	774.1431291478149	301.4773306541666	-56.70604234249635	580.9738486645756	59.01563960107758	-56.80765887106246	337.64067856861493	55.497050585896886
191	0.95	22.107236112882294	773.511084760505	301.4164170253354	-56.515191454734335	579.8883359952242	59.27235237107483	-56.636226425560125	336.6039439934974	55.21536290101467
192	0.955	22.131907870976075	772.8817842067925	301.3546377617586	-56.32034088156601	578.8160275993862	59.51673858201986	-56.455123985712035	335.58832865213867	54.93778057541534
193	0.96	22.156966211199443	772.255325379102	301.292105779776	-56.12164641279824	577.7570958440101	59.748831295542566	-56.26480014936223	334.5933964883953	54.6644024144326
194	0.965	22.182423386422794	771.6318007660719	301.2289348717089	-55.919270523064284	576.7116924044574	59.96868384041088	-56.065709160799415	333.6186989162753	54.39530133644962
195	0.97	22.208291654431672	771.0112976218601	301.16523943111446	-55.71338244567869	575.679948861794	60.17636946027446	-55.85830999013514	332.66377648545176	54.130525040356105
196	0.975	22.234583220101566	770.3938981634623	301.101134175657	-55.5041582297807	574.661977367985	60.37198090117079	-55.64306540176639	331.7281605427339	53.87009678417745
197	0.98	22.261310174116584	769.7796797953993	301.0367338687162	-55.29178078029729	573.6578713748606	60.55562994146675	-55.420441013805004	330.81137488570766	53.614016271869005
198	0.985	22.288484428412023	769.1687153610134	300.97215304088905	-55.07643988037782	572.6677064226117	60.727446867087735	-55.19090435039002	329.9129374049385	53.36226064488105
199	0.99	22.31611764853888	768.561073419476	300.9075057125811	-54.858332196059536	571.6915409835012	60.887579895033895	-54.95492388882779	329.0323617113297	53.1147855747256
200	0.995	22.34422118316633	767.9568185474765	300.8429051189012	-54.63766126301697	570.7294173564194	61.03619454830555	-54.71296810352735	328.16915874543326	52.87152645241756
201	1.0	22.372805990955566	767.3560116644381	300.77846343809034	-54.41463745532883	569.7813626078768	61.173472985458965	-54.46550450871416	327.32283836572316	52.63239967032155
202	1.005	22.401882565058376	766.7587103799718	300.7142915247223	-54.18947793626329	568.8473895550196	61.29961328809199	-54.212998701912596	326.4929109130598	52.39730399161379
203	1.01	22.431460855515382	766.1649693621739	300.65049864890256	-53.962406591140436	567.9274977862567	61.414828709616074	-53.95591341018512	325.6788887487947	52.16612200226633
204	1.015	22.461550189853	765.5748407252586	300.5871922426829	-53.733653942378886	567.0216747151126	61.51934688870686	-53.69470754110506	324.88028776418986	51.938721640178855
205	1.02	22.492159192204017	764.9883744349318	300.52447765487574	-53.503457046875546	566.1298966629674	61.61340903083981	-53.42983524041945	324.0966288590505	51.71495779582341
206	1.025	22.52329570130301	764.4056187298197	300.4624579154175	-53.27205937590321	565.2521299664023	61.69726906131133	-53.16174495832932	323.3274393876951	51.49467397852889
207	1.03	22.554966687734076	763.8266205572	300.4012335103776	-53.03971067774117	564.3883321049373	61.771192753122136	-52.89087852627776	322.5722545706089	51.2777040423168
208	1.035	22.587178170833358	763.2514260212162	300.3409021686509	-52.806666823279045	563.5384528450355	61.83545683305997	-52.61767024609131	321.83061887034705	51.063873965007275
209	1.04	22.619935135671792	762.6800808417006	300.28155866129845	-52.57318963485383	562.7024353963411	61.890348069265805	-52.34254599326847	321.1020873304651	50.85300367414352
210	1.045	22.65324145056488	762.1126308216882	300.22329461442376	-52.3395466985942	561.8802175762185	61.93616234350364	-52.06592233615261	320.38622687645915	50.6449089131342
211	1.05	22.687099785575754	761.5491223216744	300.16619833638293	-52.106011160554715	561.0717329787794	61.97320371128008	-51.78820567266368	319.68261757789287	50.439403140882604
212	1.055	22.721511532494798	760.9896027386367	300.11035466003034	-51.87286150692309	560.2769121447006	62.00178345287945	-51.509791386197605	318.9908538710649	50.23629945806084
213	1.06	22.756476726794915	760.4341209878421	300.05584480059775	-51.640381328576346	559.4956837282648	62.02221911829368	-51.23106302223165	318.31054574173913	50.03541255309233
214	1.065	22.791993972075343	759.8827279854485	300.0027462296891	-51.40885907024496	558.727975658187	62.034833568937536	-50.95239148710186	317.6413198676065	49.8365606608282
215	1.07	22.82806036751992	759.3354771299282	299.951132565754	-51.178587764516166	557.973716288921	62.03995401894899	-50.67413427034412	316.98282072027956	49.639567526842654
216	1.075	22.864671438905532	758.7924247803535	299.90107348127725	-50.94986475087009	557.23283553927	62.037911078785356	-50.396634691916205	316.33471162673146	49.44426437022848
217	1.08	22.901821073699164	758.2536307296195	299.8526346267994	-50.722991379892775	556.5052660152485	62.029037803739655	-50.120221175544984	315.6966757901862	49.250491837748214
218	1.085	22.939501460773187	757.7191586707173	299.80587757177386	-50.498272702752054	555.7909441142579	62.013668749921585	-49.845206549371305	315.0684172705376	49.058101942187704
219	1.09	22.977703035246066	757.1890766542291	299.76085976217354	-50.27601714595307	555.0898111077499	61.99213904017608	-49.5718873749967	314.44966192442683	48.866959977767024
220	1.095	23.016414428922317	756.6634575352795	299.7176344946787	-50.05653617131104	554.4018141996488	61.96478344235081	-49.30054330597104	313.8401583051345	48.67694640548707
221	1.1	23.055622426765467	756.1423794082488	299.6762509072057	-49.840143920990485	553.7269075579	61.93193546227178	-49.03143647669973	313.23967852245283	48.48795870132794
222	1.105	23.09531192979522	755.6259260276262	299.6367539854701	-49.62715684736529	553.065053316595	61.89392645373893	-48.76481092269445	312.6480190626869	48.299913160264424
223	1.11	23.1354659247562	755.1141872134504	299.5991845852023	-49.41789332736009	552.4162225461956	61.8510847478016	-48.50089203304297	312.06500156889865	48.11274664912651
224	1.115	23.176065460860766	754.6072592398441	299.56357946957047	-49.21267326085131	551.7803961894367	61.80373480350906	-48.23988603593352	311.4904735814556	47.92641830140626
225	1.12	23.217089633862926	754.1052452052128	299.529971361288	-49.011817652645725	551.1575659605231	61.75219638224146	-47.98197951803745	310.9243092388723	47.7409111472006
226	1.125	23.258515577674057	753.6082553827168	299.49838900881997	-48.815648177518916	550.5477352052565	61.69678374761439	-47.72733897853255	310.3664099388476	47.55623367158157
227	1.13	23.300318463685006	753.1164075496754	299.4688572660325	-48.62448672778325	549.9509197197393	61.63780489281905	-47.476110418537885	309.81670495929745	47.372421294805115
228	1.135	23.342471507913476	752.629827294606	299.44139718456603	-48.43865494285756	549.367148525313	61.5755607971197	-47.22841896673035	309.27515203907205	47.18953776790732
229	1.14	23.38494598605023	752.1486483006307	299.4160261181485	-48.25847372032356	548.7964645974038	61.51034471309067	-46.98436854192224	308.74173791791685	47.0076764773937
230	1.145	23.427711256433373	751.6730126040352	299.39275783800286	-48.08426270797797	548.2389255459682	61.44244148603678	-46.744041553396485	308.21647883510843	46.82696165290478
231	1.15	23.470734790935378	751.2030708267926	299.3716026584409	-47.916339776430235	547.6946042452647	61.37212690690488	-46.507498639821115	307.6994209860514	46.64754947193952
232	1.155	23.51398221370447	750.7389823819167	299.35256757167923	-47.755020471861116	547.163589410693	61.29966709985354	-46.27477844759332	307.1906409359809	46.46962905593953
233	1.16	23.557417347659754	750.2809156505483	299.3356563908543	-47.60061744865371	546.6459861204767	61.22531794549998	-46.04589744949613	306.6902459897691	46.29342335228296
234	1.165	23.601002268599213	749.829048129726	299.3208699001637	-47.453439881733374	546.1419162799743	61.14932454070837	-45.82084980458306	306.19837451668656	46.11918989700908
235	1.17	23.644697366742847	749.3835665498478	299.3082060110152	-47.31379285860199	545.6515190264325	61.07192069562585	-45.59960726023801	305.7151962288317	45.94722145339455
236	1.175	23.68846141550003	748.9446669608827	299.2976599230221	-47.18197675121583	545.1749510720196	60.99332846851964	-45.38211909738611	305.2409124117993	45.777846521830746
237	1.18	23.732251647220338	748.5125547864567	299.28922428865263	-47.05828656803067	544.7123869830173	60.913757738823826	-45.168312119855656	304.77575610603435	45.61142971680832
238	1.185	23.776023835661793	748.0874448450019	299.282889380313	-46.94301128671937	544.2640193931124	60.83340581867082	-44.958090688908236	304.31999223719333	45.448372007200746
239	1.19	23.819732384887114	747.6695613372249	299.27864325862515	-46.83643316825548	543.8300591487961	60.75245710305984	-44.75133680396388	303.87391769372596	45.289110816453885
240	1.195	23.86333042427803	747.2591377992234	299.27647194065304	-46.73882705325254	543.4107353849738	60.67108275870268	-44.54791023054577	303.437861349795	45.13411997973322
241	1.2	23.90676990933814	746.8564170206514	299.27635956682724	-46.650459641651764	543.0062955289982	60.58944045148467	-44.347648676454384	303.0121840315685	44.98390955555489
